<svg width="400" height="208" viewBox="0 0 400 208" fill="none" xmlns="http://www.w3.org/2000/svg">
<g clip-path="url(#clip0)">
<path d="M200.376 121.14H169.216L200.376 92.5376V121.14V121.14ZM200.376 47.8626H195.67L142.312 96.8352V121.125H147.011L200.376 72.1483V47.8626ZM142.312 76.4609L173.461 47.8626H142.312V76.4609ZM43.0509 77.7097H25.5632L16.7838 85.7724C16.6725 85.8775 16.5412 85.9592 16.3978 86.0126C16.2544 86.0661 16.1018 86.0902 15.9489 86.0836C15.32 86.0836 15.0055 85.8061 15.0055 85.2474V47.8626H0V121.14H15.0055V101.459L26.0686 91.3038H43.0509V121.14H58.0564V47.8626H43.0509V77.7097ZM106.652 47.8776H94.4244L68.0862 121.155H82.5076L87.0003 108.487H114.173L118.666 121.155H132.986L106.652 47.8776ZM98.187 94.9601L90.6805 103.342C90.576 103.464 90.4479 103.565 90.3038 103.637C90.1597 103.709 90.0027 103.751 89.8419 103.762C89.3427 103.762 89.0931 103.552 89.0931 103.132V102.925L100.591 70.787L109.265 94.9601H98.187ZM334.8 74.4433V64.6931C334.8 58.8979 333.408 54.6578 330.622 51.9727C327.837 49.2876 323.656 47.9438 318.08 47.9413H284.614V61.4417H292.139C292.697 61.4417 292.974 61.7567 292.974 62.3867C292.982 62.54 292.958 62.6932 292.905 62.8371C292.851 62.9809 292.769 63.1122 292.663 63.223L284.614 72.0433V121.14H298.2V91.3038H310.952L321.809 121.14H336.23L325.047 90.3625C331.537 88.3375 334.782 83.0336 334.782 74.4508L334.8 74.4433ZM321.322 74.4433C321.322 76.6059 320.243 77.6872 318.084 77.6872H298.241V61.468H318.084C320.24 61.468 321.32 62.5505 321.322 64.7156V74.4433ZM395.826 51.8827C393.04 49.1976 388.859 47.8551 383.284 47.8551H349.843V61.3555H357.365C357.922 61.3555 358.203 61.6667 358.203 62.2967C358.211 62.4502 358.187 62.6037 358.133 62.7475C358.078 62.8913 357.995 63.0225 357.889 63.133L349.843 71.927V121.128H383.284C388.859 121.128 393.04 119.767 395.826 117.045C398.611 114.322 400.005 110.064 400.007 104.272V64.6106C400.005 58.8179 398.605 54.5778 395.807 51.8902L395.826 51.8827ZM386.522 104.283C386.522 106.45 385.441 107.533 383.28 107.53H363.437V61.3667H383.28C385.439 61.3667 386.519 62.448 386.522 64.6106V104.283ZM235.943 47.8626L209.605 121.14H224.026L228.519 108.472H255.688L260.181 121.14H274.505L248.171 47.8626H235.943ZM239.687 94.9601L232.166 103.334C232.061 103.457 231.933 103.557 231.789 103.629C231.644 103.701 231.488 103.744 231.327 103.754C230.828 103.754 230.578 103.544 230.578 103.124V102.918L242.072 70.7795L250.765 94.9601H239.687ZM175.449 134.644H158.819C153.036 134.644 148.786 136.039 146.068 138.829C143.349 141.619 141.992 145.807 141.994 151.392V191.068C141.994 196.653 143.352 200.857 146.068 203.679C148.783 206.502 153.034 207.916 158.819 207.921H175.435C181.008 207.921 185.189 206.56 187.977 203.837C190.764 201.114 192.158 196.858 192.158 191.068V151.392C192.158 145.602 190.764 141.361 187.977 138.671C185.189 135.981 181.013 134.639 175.449 134.644ZM178.692 191.068C178.692 193.23 177.611 194.312 175.449 194.312H158.819C157.703 194.312 156.885 194.05 156.363 193.528C155.839 193.003 155.581 192.182 155.581 191.068V151.392C155.581 149.229 156.66 148.148 158.819 148.148H175.435C177.596 148.148 178.677 149.229 178.677 151.392L178.692 191.068ZM299.675 148.148V172.014C299.675 172.572 299.99 172.85 300.615 172.85C300.769 172.858 300.922 172.835 301.066 172.781C301.211 172.728 301.342 172.645 301.454 172.539L310.229 164.476H329.462V178.085H299.675V194.312H336.253V207.921H286.085V134.644H336.253V148.144L299.675 148.148ZM256.621 134.648H270.207V207.925H256.411L221.593 155.798V207.925H208.04V148.774H214.521C215.424 148.774 215.876 148.39 215.876 147.623C215.781 147.143 215.605 146.682 215.356 146.262L208.04 134.636H223.506L257.055 184.674L256.621 134.648ZM126.139 207.921H94.9897L126.139 179.337V207.94V207.921ZM126.139 134.644H121.444L68.0862 183.631V207.921H72.7848L126.139 158.929V134.644ZM68.0862 163.242L99.2353 134.644H68.0862V163.242ZM273.573 0H265.849V34.0809H273.67C278.436 34.0809 279.6 31.8909 279.6 28.0808V5.98892C279.6 2.28756 278.387 0 273.573 0V0ZM275.07 28.1258C275.07 29.1983 274.696 29.7833 273.464 29.7833H270.387V4.26387H273.446C274.659 4.26387 275.097 4.80014 275.097 5.97017L275.07 28.1258ZM234.678 0H245.868V4.28637H239.2V14.7529H245.868V18.9418H237.699V29.7983H245.868V34.0809H233.176V18.9418H234.674L234.678 0ZM223.446 0H227.965V34.0809H223.446V0ZM207.213 0H218.403V4.28637H211.746V14.7529H218.414V18.9418H211.746V34.0809H207.224L207.213 0ZM190.365 0H201.556V4.28637H194.899V14.7529H201.571V18.9418H194.899V29.7983H201.571V34.0809H190.38L190.365 0ZM186.939 34.0809H174.266V14.7529H175.764V0H180.287V14.7529H178.789V29.7983H186.958L186.939 34.0809ZM158.913 0H172.237V4.28637H167.849V14.7529H166.049V34.0809H161.814V14.7529H163.312V4.28637H158.928L158.913 0ZM142.593 0H155.918V4.28637H151.53V34.0809H147.011V4.28637H142.608L142.593 0ZM131.036 0L125.42 34.0809H129.991L131.189 25.5495H138.138L139.336 34.0809H143.904L142.496 25.5495H140.998L136.786 0H131.036ZM131.766 21.3756L133.904 6.12017L136.041 21.3756H131.766ZM120.65 16.808C122.148 16.0317 122.792 14.7154 122.792 12.6829V5.35515C122.792 1.8488 121.669 0 116.959 0H109.246V34.0809H117.262C121.927 34.0809 122.998 31.7934 122.998 28.287V21.0343C123.001 18.9418 122.32 17.5767 120.665 16.7967L120.65 16.808ZM113.754 4.29762H116.813C118.172 4.29762 118.367 5.02514 118.367 6.48768V12.3303C118.367 13.8304 118.172 14.7642 116.764 14.7642H113.769L113.754 4.29762ZM118.479 28.2083C118.479 29.2771 118.104 29.8133 116.925 29.8133H113.769V18.9418H116.828C118.09 18.9418 118.479 19.6205 118.479 20.7418V28.2083ZM279.6 0.0150036H280.75V0.262512H280.323V1.46254H280.031V0.262512H279.6V0.0150036ZM282.326 0.0150036V1.46254H282.053V0.337507L281.768 1.46254H281.487L281.203 0.337507V1.46254H280.93V0.0150036H281.368L281.63 1.00128L281.888 0.0150036H282.326ZM263.023 34.096H250.335V14.7529H251.832V0H256.351V14.7529H254.853V29.7983H263.019L263.023 34.096ZM290.757 34.096H289.511L286.302 30.9121C286.1 30.7096 286.044 30.6346 285.872 30.6346H285.583C285.542 30.6294 285.5 30.6338 285.461 30.6476C285.422 30.6614 285.387 30.6841 285.358 30.714C285.33 30.7439 285.308 30.7801 285.296 30.8197C285.284 30.8593 285.281 30.9012 285.287 30.9421V32.5547C285.287 32.7647 285.392 32.8509 285.594 32.8509H286.486V34.096H285.613C284.606 34.096 284.071 33.6384 284.071 32.5547V30.9421C284.071 29.9333 284.531 29.3971 285.602 29.3971H285.815C286 29.3706 286.188 29.3833 286.367 29.4343C286.547 29.4853 286.713 29.5736 286.856 29.6933L289.529 32.3409V29.3971H290.776V32.5997H290.027C289.952 32.5997 289.915 32.6972 289.982 32.7647L290.787 33.5709L290.757 34.096ZM285.583 24.2257C284.58 24.2257 284.052 23.7682 284.052 22.6844V21.1581C284.052 20.1493 284.512 19.6243 285.583 19.6243H289.215C290.297 19.6243 290.757 20.1493 290.757 21.1581V22.6844C290.757 23.7682 290.218 24.2257 289.215 24.2257H285.583ZM289.215 22.9806C289.413 22.9806 289.511 22.8944 289.511 22.6844V21.1581C289.517 21.1177 289.514 21.0764 289.501 21.0375C289.489 20.9986 289.467 20.9633 289.438 20.9344C289.409 20.9055 289.374 20.8838 289.335 20.8712C289.296 20.8586 289.255 20.8554 289.215 20.8618H285.583C285.543 20.8562 285.502 20.86 285.464 20.8729C285.425 20.8858 285.39 20.9075 285.362 20.9362C285.333 20.9649 285.311 20.9999 285.299 21.0384C285.286 21.0769 285.282 21.1179 285.287 21.1581V22.6844C285.281 22.7247 285.284 22.7661 285.297 22.8049C285.309 22.8438 285.331 22.8792 285.36 22.9081C285.389 22.937 285.424 22.9586 285.463 22.9712C285.502 22.9839 285.543 22.9871 285.583 22.9806H289.215ZM289.799 14.4829H288.552L284.059 11.1078V9.87028H288.552V10.5603C288.556 10.5776 288.564 10.5936 288.576 10.6066C288.588 10.6196 288.603 10.6292 288.62 10.6342C288.637 10.6392 288.655 10.6395 288.672 10.6351C288.689 10.6306 288.704 10.6216 288.717 10.609L289.522 9.85903H290.757V11.0966H289.799V14.4829ZM288.552 12.9379V11.1078H286.13L288.552 12.9379ZM290.757 4.71763H289.511L286.302 1.53004C286.1 1.33128 286.044 1.25253 285.872 1.25253H285.583C285.542 1.24731 285.5 1.25176 285.461 1.26555C285.422 1.27933 285.387 1.30207 285.358 1.33193C285.33 1.3618 285.308 1.39799 285.296 1.43759C285.284 1.47719 285.281 1.51912 285.287 1.56004V3.17259C285.287 3.38259 285.392 3.46885 285.594 3.46885H286.486V4.71763H285.613C284.606 4.71763 284.071 4.25637 284.071 3.17259V1.56004C284.071 0.551267 284.531 0.0150036 285.602 0.0150036H285.815C286 -0.0114864 286.188 0.00119238 286.367 0.0522323C286.547 0.103272 286.713 0.191523 286.856 0.311254L289.529 2.95884V0.0150036H290.776V3.22134H290.027C289.952 3.22134 289.915 3.31509 289.982 3.38259L290.787 4.18887L290.757 4.71763Z" fill="#2AFDDD"/>
</g>
<defs>
<clipPath id="clip0">
<rect width="400" height="207.921" fill="white"/>
</clipPath>
</defs>
</svg>
